<?xml version="1.0" standalone="no"?>
<!DOCTYPE svg PUBLIC "-//W3C//DTD SVG 20010904//EN"
 "http://www.w3.org/TR/2001/REC-SVG-20010904/DTD/svg10.dtd">
<svg version="1.0" xmlns="http://www.w3.org/2000/svg"
 width="256.000000pt" height="256.000000pt" viewBox="0 0 256.000000 256.000000"
 preserveAspectRatio="xMidYMid meet">
<metadata>
Created by potrace 1.11, written by Peter Selinger 2001-2013
</metadata>
<g transform="translate(0.000000,256.000000) scale(0.100000,-0.100000)"
fill="#000000" stroke="none">
<path d="M1153 2413 c-32 -38 -60 -70 -63 -73 -17 -16 -122 -164 -152 -215
-113 -188 -185 -388 -189 -523 -2 -76 4 -92 52 -126 49 -34 79 -80 79 -119 0
-37 -27 -82 -57 -96 -22 -10 -24 -9 -18 8 5 15 -5 22 -62 42 -62 22 -68 26
-65 49 3 25 -3 28 -255 110 -142 46 -295 96 -340 111 l-83 28 32 -57 c84 -154
202 -309 327 -432 173 -170 443 -350 529 -352 18 -1 46 11 73 30 58 41 85 45
81 13 -6 -41 -46 -75 -89 -75 -21 1 -47 4 -58 7 -16 5 -27 -4 -57 -46 -20 -28
-113 -158 -207 -287 -93 -129 -168 -236 -167 -238 2 -2 50 8 107 22 57 14 107
26 112 26 4 0 -15 -31 -43 -69 -27 -38 -50 -71 -50 -74 0 -7 95 15 220 50 301
84 568 239 693 404 31 41 33 68 12 129 -22 63 -8 123 37 154 44 31 50 16 15
-36 l-24 -34 163 -225 c90 -123 167 -228 171 -234 5 -5 23 -31 41 -57 31 -45
54 -68 51 -51 -1 4 -1 19 0 33 1 20 10 12 57 -53 31 -43 58 -76 60 -74 12 12
17 69 19 252 3 159 0 225 -15 320 -39 251 -128 451 -212 477 -24 7 -46 23 -60
44 -27 39 -71 64 -104 58 -42 -8 -44 40 -3 87 17 19 30 24 71 24 45 0 53 -4
78 -33 l28 -34 298 97 c376 122 364 117 364 127 0 4 -4 8 -10 8 -5 0 -39 14
-75 30 -36 17 -71 30 -78 31 -6 0 1 6 16 13 l28 13 -59 26 c-112 51 -295 114
-387 133 -125 27 -199 36 -315 38 -145 3 -288 -26 -310 -62 -6 -11 -10 97 -10
323 l0 340 -55 -60 c-30 -33 -55 -63 -55 -67 0 -5 -4 -8 -9 -8 -5 0 -8 50 -7
110 0 61 -2 110 -6 110 -3 0 -33 -30 -65 -67z m172 -772 c-15 -30 -60 -71 -77
-71 -5 0 -6 10 -3 23 8 27 60 77 80 77 14 0 14 -3 0 -29z m15 -429 c0 -59 -43
-111 -102 -126 -27 -6 -28 -5 -28 31 0 21 6 49 13 63 15 29 65 65 95 67 19 2
22 -3 22 -35z"/>
</g>
</svg>
