<?xml version="1.0" encoding="utf-8"?>
<!-- Generator: Adobe Illustrator 23.0.3, SVG Export Plug-In . SVG Version: 6.00 Build 0)  -->
<svg version="1.1" id="Calque_1" xmlns="http://www.w3.org/2000/svg" xmlns:xlink="http://www.w3.org/1999/xlink" x="0px" y="0px"
	 viewBox="0 0 1259 200" style="enable-background:new 0 0 1259 200;" xml:space="preserve">
<style type="text/css">
	.st0{fill:#E50914;}
	.st1{fill:#FFFFFF;}
</style>
<g>
	<g>
		<g>
			<path class="st0" d="M146.01,95.19c3.58,0,6.57,2.43,7.47,5.73l52.14-16.94c-47.38-22.53-75.05-14.04-78.54-12.73
				c-5.61,2.09-4.27,4.74-5.95,8.86c-1.27,3.12-3.62,4.66-5.51,5.46c-0.16,0.08-0.33,0.14-0.5,0.21c-0.14,0.05-0.3,0.14-0.43,0.18
				c-0.09,0.03-0.54,0.17-0.68,0.21c-0.63,0.17-1.48,0.14-1.65,0.14c-4.3,0-7.78-3.48-7.78-7.78c0-4.3,3.48-7.78,7.78-7.78
				c0.16,0,0.32,0.04,0.48,0.05v-0.04V15.46C76.78,53.56,76.31,82.5,76.47,86.22c0.26,5.98,3.19,5.53,6.59,8.4
				c3.02,2.54,3.56,5.88,3.58,7.93c0,0.1,0.03,0.19,0.03,0.29c0,0.14-0.03,0.28-0.04,0.42c-0.04,0.65-0.1,1.06-0.11,1.11
				c-0.04,0.17-0.1,0.33-0.15,0.5l-0.05-0.02c-0.89,3.32-3.89,5.78-7.49,5.78c-4.3,0-7.78-3.49-7.78-7.78c0-0.98,0.2-1.92,0.54-2.79
				l-52.31-17c25.09,46.08,52.46,55.47,56.05,56.47c5.76,1.6,6.24-1.33,10.02-3.68c3.35-2.08,6.69-1.57,8.65-0.95
				c0.1,0.03,0.54,0.18,0.67,0.23c0.61,0.23,1.18,0.71,1.18,0.71c2.13,1.39,3.55,3.78,3.55,6.52c0,4.3-3.49,7.78-7.78,7.78
				c-1.86,0-3.54-0.68-4.88-1.76l-32.44,44.65c51.58-9.62,68.97-32.76,71.03-35.86c3.31-4.99,0.67-6.34-0.4-10.67
				c-0.8-3.23,0.17-5.88,1.2-7.63c1.27-2.57,3.89-4.35,6.95-4.35c4.3,0,7.78,3.48,7.78,7.78c0,2.74-1.42,5.14-3.56,6.52l32.31,44.47
				c6.79-52.03-9.84-75.71-12.16-78.63c-3.72-4.68-5.83-2.59-10.27-2.91c-3.15-0.23-5.28-1.79-6.65-3.26
				c-0.08-0.08-0.14-0.17-0.22-0.26c-0.24-0.27-0.5-0.55-0.69-0.8c-0.06-0.08-0.33-0.46-0.41-0.58c-0.36-0.55-0.99-2.92-0.99-3.89
				C138.23,98.68,141.71,95.19,146.01,95.19z M112.03,123.21c-5.58,0-10.1-4.52-10.1-10.1c0-5.58,4.52-10.1,10.1-10.1
				c5.58,0,10.1,4.52,10.1,10.1C122.14,118.69,117.61,123.21,112.03,123.21z"/>
		</g>
	</g>
	<g>
		<path class="st0" d="M346.57,175.79h-30.34l-44.37-98.55v98.55h-30.34V25.54h30.34l44.48,98.66V25.54h30.24V175.79z"/>
	</g>
	<g>
		<path class="st0" d="M402.61,175.79h-30.34V25.54h30.34V175.79z"/>
	</g>
	<g>
		<path class="st0" d="M533.16,175.79h-30.34l-44.37-98.55v98.55H428.1V25.54h30.34l44.48,98.66V25.54h30.24V175.79z"/>
	</g>
	<g>
		<path class="st0" d="M606.94,25.54h30.34v104.02c0,14.58-4.06,26.28-12.18,35.09c-8.12,8.81-18.58,13.21-31.37,13.21
			c-13.76,0-24.46-4.09-32.09-12.28c-7.64-8.19-11.46-19.57-11.46-34.16h30.44c0,14.17,4.37,21.26,13.11,21.26
			c8.81,0,13.21-8.19,13.21-24.56V25.54z"/>
	</g>
	<g>
		<g>
			<g>
				<path class="st1" d="M867.41,175.79h-30.34V25.54h30.34V175.79z"/>
			</g>
		</g>
		<g>
			<g>
				<path class="st1" d="M932.53,25.54l28.38,108.67l28.28-108.67h39.63v150.26h-30.44v-40.66l2.79-62.64l-30.03,103.3h-20.64
					l-30.03-103.3l2.79,62.64v40.66H892.9V25.54H932.53z"/>
			</g>
		</g>
		<g>
			<g>
				<path class="st1" d="M1130.77,110.78h-47.26v39.83h55.93v25.18h-86.27V25.54h86.07v25.28h-55.73v35.5h47.26V110.78z"/>
			</g>
		</g>
		<g>
			<g>
				<path class="st1" d="M1220.35,136.37c0-6.12-1.57-10.75-4.7-13.88c-3.13-3.13-8.82-6.38-17.08-9.75
					c-15.07-5.71-25.9-12.4-32.51-20.07c-6.6-7.67-9.91-16.74-9.91-27.19c0-12.66,4.49-22.82,13.47-30.49
					c8.98-7.67,20.38-11.51,34.21-11.51c9.22,0,17.44,1.94,24.66,5.83c7.22,3.89,12.78,9.37,16.66,16.46
					c3.89,7.09,5.83,15.13,5.83,24.15h-30.24c0-7.02-1.5-12.37-4.49-16.05c-2.99-3.68-7.31-5.52-12.95-5.52
					c-5.3,0-9.43,1.57-12.39,4.7c-2.96,3.13-4.44,7.34-4.44,12.64c0,4.13,1.65,7.86,4.95,11.2c3.3,3.34,9.15,6.79,17.54,10.37
					c14.66,5.3,25.3,11.8,31.94,19.5c6.64,7.71,9.96,17.51,9.96,29.41c0,13.07-4.16,23.29-12.49,30.65
					c-8.33,7.36-19.64,11.04-33.95,11.04c-9.7,0-18.54-2-26.52-5.99c-7.98-3.99-14.23-9.7-18.73-17.13
					c-4.51-7.43-6.76-16.2-6.76-26.32h30.44c0,8.67,1.69,14.96,5.06,18.89c3.37,3.92,8.87,5.88,16.51,5.88
					C1215.05,153.19,1220.35,147.58,1220.35,136.37z"/>
			</g>
		</g>
		<g>
			<polygon class="st1" points="782.84,25.54 782.84,126.07 752.17,25.54 719.07,25.54 766.37,175.79 782.84,175.79 798.01,175.79 
				813.18,175.79 813.18,25.54 			"/>
		</g>
	</g>
	<g>
		<path class="st0" d="M730.58,145.04h-41.38l-8.05,30.75h-32.09L696,25.54h27.76l47.26,150.26h-32.4L730.58,145.04z M695.8,119.75
			h28.07L709.83,66.2L695.8,119.75z"/>
	</g>
	<g>
		<g>
			<path class="st1" d="M136.32,87.75c3.58,0,6.57,2.43,7.47,5.73l52.14-16.94c-47.38-22.53-75.05-14.04-78.54-12.73
				c-5.61,2.09-4.27,4.74-5.95,8.86c-1.27,3.12-3.62,4.66-5.51,5.46c-0.16,0.08-0.33,0.14-0.5,0.21c-0.14,0.05-0.3,0.14-0.43,0.18
				c-0.09,0.03-0.54,0.17-0.68,0.21c-0.63,0.17-1.48,0.14-1.65,0.14c-4.3,0-7.78-3.48-7.78-7.78c0-4.3,3.48-7.78,7.78-7.78
				c0.16,0,0.32,0.04,0.48,0.05v-0.04V8.02c-36.07,38.1-36.54,67.04-36.38,70.76c0.26,5.98,3.19,5.53,6.59,8.4
				c3.02,2.54,3.56,5.88,3.58,7.93c0,0.1,0.03,0.19,0.03,0.29c0,0.14-0.03,0.28-0.04,0.42c-0.04,0.65-0.1,1.06-0.11,1.11
				c-0.04,0.17-0.1,0.33-0.15,0.5l-0.05-0.02c-0.89,3.32-3.89,5.78-7.49,5.78c-4.3,0-7.78-3.49-7.78-7.78c0-0.98,0.2-1.92,0.54-2.79
				l-52.31-17c25.09,46.08,52.46,55.47,56.05,56.47c5.76,1.6,6.24-1.33,10.02-3.68c3.35-2.08,6.69-1.57,8.65-0.95
				c0.1,0.03,0.54,0.18,0.67,0.23c0.61,0.23,1.18,0.71,1.18,0.71c2.13,1.39,3.55,3.78,3.55,6.52c0,4.3-3.49,7.78-7.78,7.78
				c-1.86,0-3.54-0.68-4.88-1.76L44.61,185.6c51.58-9.62,68.97-32.76,71.03-35.86c3.31-4.99,0.67-6.34-0.4-10.67
				c-0.8-3.23,0.17-5.88,1.2-7.63c1.27-2.57,3.89-4.35,6.95-4.35c4.3,0,7.78,3.48,7.78,7.78c0,2.74-1.42,5.14-3.56,6.52l32.31,44.47
				c6.79-52.03-9.84-75.71-12.16-78.63c-3.72-4.68-5.83-2.59-10.27-2.91c-3.15-0.23-5.28-1.79-6.65-3.26
				c-0.08-0.08-0.14-0.17-0.22-0.26c-0.24-0.27-0.5-0.55-0.69-0.8c-0.06-0.08-0.33-0.46-0.41-0.58c-0.36-0.55-0.99-2.92-0.99-3.89
				C128.54,91.24,132.02,87.75,136.32,87.75z M102.35,115.77c-5.58,0-10.1-4.52-10.1-10.1c0-5.58,4.52-10.1,10.1-10.1
				c5.58,0,10.1,4.52,10.1,10.1C112.45,111.25,107.93,115.77,102.35,115.77z"/>
		</g>
	</g>
</g>
</svg>
